<?xml version="1.0" encoding="UTF-8"?>
<!DOCTYPE svg PUBLIC "-//W3C//DTD SVG 1.1//EN" "http://www.w3.org/Graphics/SVG/1.1/DTD/svg11.dtd">
<svg xmlns="http://www.w3.org/2000/svg" version="1.1" width="512px" height="512px" style="shape-rendering:geometricPrecision; text-rendering:geometricPrecision; image-rendering:optimizeQuality; fill-rule:evenodd; clip-rule:evenodd" xmlns:xlink="http://www.w3.org/1999/xlink">
<g><path style="opacity:0.998" fill="#4DBC9C" d="M 233.5,-0.5 C 248.167,-0.5 262.833,-0.5 277.5,-0.5C 377.81,11.9875 449.31,63.9875 492,155.5C 502.142,181.067 508.642,207.401 511.5,234.5C 511.5,248.5 511.5,262.5 511.5,276.5C 501.175,367.954 456.175,436.454 376.5,482C 344.935,498.248 311.601,508.082 276.5,511.5C 262.167,511.5 247.833,511.5 233.5,511.5C 133.19,499.013 61.6905,447.013 19,355.5C 8.86452,330.623 2.36452,304.957 -0.5,278.5C -0.5,263.167 -0.5,247.833 -0.5,232.5C 9.30698,148.242 49.6403,83.0754 120.5,37C 155.421,15.9708 193.087,3.47075 233.5,-0.5 Z"/></g>
<g><path style="opacity:1" fill="#FFFFFF" d="M 115.5,117.5 C 121.602,116.733 127.269,117.899 132.5,121C 160.003,137.253 187.67,153.253 215.5,169C 222.977,176.651 223.477,184.817 217,193.5C 210.871,197.896 204.371,198.563 197.5,195.5C 188.781,211.576 175.448,217.742 157.5,214C 140.339,206.852 133.172,194.019 136,175.5C 137.44,171.453 139.274,167.62 141.5,164C 131.86,157.509 121.86,151.509 111.5,146C 105.833,140.681 103.999,134.181 106,126.5C 108.406,122.592 111.572,119.592 115.5,117.5 Z"/></g>
<g><path style="opacity:1" fill="#FFFFFF" d="M 384.5,117.5 C 394.718,115.395 401.884,119.062 406,128.5C 407.001,135.497 404.834,141.33 399.5,146C 389.419,151.456 379.586,157.289 370,163.5C 371.584,167.359 373.25,171.359 375,175.5C 376.88,202.288 364.38,215.454 337.5,215C 326.668,212.002 318.668,205.502 313.5,195.5C 302.825,199.912 294.992,196.912 290,186.5C 288.428,179.551 290.261,173.718 295.5,169C 325.335,151.97 355.002,134.803 384.5,117.5 Z"/></g>
<g><path style="opacity:1" fill="#FFFFFF" d="M 243.5,285.5 C 302.762,282.521 352.595,302.521 393,345.5C 395.723,348.557 398.056,351.89 400,355.5C 401.5,370.667 394.667,377.5 379.5,376C 378.167,375.333 376.833,374.667 375.5,374C 336.115,327.823 286.448,310.156 226.5,321C 193.08,329.771 165.414,347.437 143.5,374C 133.445,379.07 125.612,376.904 120,367.5C 118.566,363.594 118.233,359.594 119,355.5C 138.287,329.221 163.12,310.054 193.5,298C 209.907,292.232 226.574,288.065 243.5,285.5 Z"/></g>
</svg>
