<?xml version="1.0" encoding="UTF-8"?>
<!DOCTYPE svg PUBLIC "-//W3C//DTD SVG 1.1//EN" "http://www.w3.org/Graphics/SVG/1.1/DTD/svg11.dtd">
<svg xmlns="http://www.w3.org/2000/svg" version="1.1" width="512px" height="512px" style="shape-rendering:geometricPrecision; text-rendering:geometricPrecision; image-rendering:optimizeQuality; fill-rule:evenodd; clip-rule:evenodd" xmlns:xlink="http://www.w3.org/1999/xlink">
<g><path style="opacity:0.998" fill="#4DBC9C" d="M 233.5,-0.5 C 248.167,-0.5 262.833,-0.5 277.5,-0.5C 377.81,11.9875 449.31,63.9875 492,155.5C 502.142,181.067 508.642,207.401 511.5,234.5C 511.5,248.5 511.5,262.5 511.5,276.5C 501.175,367.954 456.175,436.454 376.5,482C 344.935,498.248 311.601,508.082 276.5,511.5C 262.167,511.5 247.833,511.5 233.5,511.5C 133.19,499.013 61.6905,447.013 19,355.5C 8.86452,330.623 2.36452,304.957 -0.5,278.5C -0.5,263.167 -0.5,247.833 -0.5,232.5C 9.30698,148.242 49.6403,83.0754 120.5,37C 155.421,15.9708 193.087,3.47075 233.5,-0.5 Z"/></g>
<g><path style="opacity:1" fill="#FFFFFF" d="M 172.5,151.5 C 192.605,149.138 205.772,157.472 212,176.5C 214.08,197.414 204.913,210.247 184.5,215C 165.562,215.733 153.729,206.9 149,188.5C 147.697,170.314 155.53,157.98 172.5,151.5 Z"/></g>
<g><path style="opacity:1" fill="#FFFFFF" d="M 322.5,151.5 C 342.605,149.138 355.772,157.472 362,176.5C 364.135,196.402 355.635,209.235 336.5,215C 318.539,216.775 306.373,209.275 300,192.5C 296.02,172.455 303.52,158.788 322.5,151.5 Z"/></g>
<g><path style="opacity:1" fill="#FFFFFF" d="M 329.5,305.5 C 346.006,305.508 352.173,313.508 348,329.5C 345.548,332.821 342.382,335.321 338.5,337C 286.046,350.53 233.713,364.53 181.5,379C 165.978,380.141 159.478,372.975 162,357.5C 164.106,352.853 167.606,349.686 172.5,348C 225.01,333.959 277.344,319.792 329.5,305.5 Z"/></g>
</svg>
