<?xml version="1.0" encoding="UTF-8"?>
<!DOCTYPE svg PUBLIC "-//W3C//DTD SVG 1.1//EN" "http://www.w3.org/Graphics/SVG/1.1/DTD/svg11.dtd">
<svg xmlns="http://www.w3.org/2000/svg" version="1.1" width="512px" height="512px" style="shape-rendering:geometricPrecision; text-rendering:geometricPrecision; image-rendering:optimizeQuality; fill-rule:evenodd; clip-rule:evenodd" xmlns:xlink="http://www.w3.org/1999/xlink">
<g><path style="opacity:0.999" fill="#4DBC9C" d="M 397.5,81.5 C 442.537,139.831 457.037,205.164 441,277.5C 435.505,299.167 427.005,319.5 415.5,338.5C 414.711,338.217 414.044,337.717 413.5,337C 423.432,324.391 422.765,312.391 411.5,301C 395.257,292.115 382.59,295.615 373.5,311.5C 352.811,300.988 332.145,290.821 311.5,281C 322.352,301.528 332.352,322.028 341.5,342.5C 306.606,315.113 267.272,305.946 223.5,315C 203.2,319.915 185.2,329.082 169.5,342.5C 178.648,322.028 188.648,301.528 199.5,281C 178.855,290.821 158.189,300.988 137.5,311.5C 130.394,297.794 119.394,293.294 104.5,298C 88.6778,308.531 86.3445,321.531 97.5,337C 85.2868,352.577 85.6201,367.911 98.5,383C 113.278,394.309 127.945,394.142 142.5,382.5C 152.268,389.484 162.601,390.317 173.5,385C 183.438,376.416 186.105,365.916 181.5,353.5C 209.357,331.451 241.024,323.284 276.5,329C 296.511,332.342 314.178,340.509 329.5,353.5C 323.967,369.243 328.634,380.743 343.5,388C 352.706,389.92 361.04,388.087 368.5,382.5C 370.573,384.58 372.907,386.246 375.5,387.5C 337.562,422.672 292.562,442.505 240.5,447C 181.458,450.626 128.958,434.126 83,397.5C 82.6012,397.728 82.4346,398.062 82.5,398.5C 40.1676,345.858 24.001,285.858 34,218.5C 49.0571,140.182 92.5571,84.0149 164.5,50C 216.09,28.7388 268.757,25.7388 322.5,41C 350.209,49.8484 375.209,63.3484 397.5,81.5 Z"/></g>
<g><path style="opacity:0.996" fill="#4DBC9C" d="M 397.5,81.5 C 457.261,132.554 484.428,197.554 479,276.5C 468.061,362.071 423.895,423.571 346.5,461C 300.266,480.683 252.599,485.016 203.5,474C 154.746,461.975 114.413,436.808 82.5,398.5C 82.4346,398.062 82.6012,397.728 83,397.5C 128.958,434.126 181.458,450.626 240.5,447C 292.562,442.505 337.562,422.672 375.5,387.5C 390.249,394.502 403.416,392.168 415,380.5C 424.785,366.528 424.951,352.528 415.5,338.5C 427.005,319.5 435.505,299.167 441,277.5C 457.037,205.164 442.537,139.831 397.5,81.5 Z"/></g>
<g><path style="opacity:1" fill="#FFFFFF" d="M 114.5,104.5 C 146.237,119.868 177.904,135.535 209.5,151.5C 210.583,152.365 210.749,153.365 210,154.5C 208.088,158.66 205.921,162.66 203.5,166.5C 171.493,150.831 139.827,134.664 108.5,118C 110.649,113.537 112.649,109.037 114.5,104.5 Z"/></g>
<g><path style="opacity:1" fill="#FFFFFF" d="M 394.5,104.5 C 397.7,107.866 400.2,111.866 402,116.5C 402.749,117.635 402.583,118.635 401.5,119.5C 370.167,135.167 338.833,150.833 307.5,166.5C 305.079,162.66 302.912,158.66 301,154.5C 300.251,153.365 300.417,152.365 301.5,151.5C 332.716,136.059 363.716,120.392 394.5,104.5 Z"/></g>
<g><path style="opacity:1" fill="#FFFFFF" d="M 111.5,191.5 C 116.833,191.5 122.167,191.5 127.5,191.5C 130.437,214.317 143.437,224.817 166.5,223C 182.116,218.264 190.449,207.764 191.5,191.5C 196.833,191.5 202.167,191.5 207.5,191.5C 204.377,220.956 188.044,236.956 158.5,239.5C 130.036,236.036 114.369,220.036 111.5,191.5 Z"/></g>
<g><path style="opacity:1" fill="#FFFFFF" d="M 303.5,191.5 C 308.833,191.5 314.167,191.5 319.5,191.5C 322.437,214.317 335.437,224.817 358.5,223C 374.116,218.264 382.449,207.764 383.5,191.5C 388.833,191.5 394.167,191.5 399.5,191.5C 396.377,220.956 380.044,236.956 350.5,239.5C 322.036,236.036 306.369,220.036 303.5,191.5 Z"/></g>
<g><path style="opacity:1" fill="#FFFFFF" d="M 169.5,342.5 C 174.126,345.458 178.126,349.124 181.5,353.5C 186.105,365.916 183.438,376.416 173.5,385C 162.601,390.317 152.268,389.484 142.5,382.5C 127.945,394.142 113.278,394.309 98.5,383C 85.6201,367.911 85.2868,352.577 97.5,337C 86.3445,321.531 88.6778,308.531 104.5,298C 119.394,293.294 130.394,297.794 137.5,311.5C 158.189,300.988 178.855,290.821 199.5,281C 188.648,301.528 178.648,322.028 169.5,342.5 Z"/></g>
<g><path style="opacity:1" fill="#FFFFFF" d="M 415.5,338.5 C 424.951,352.528 424.785,366.528 415,380.5C 403.416,392.168 390.249,394.502 375.5,387.5C 372.907,386.246 370.573,384.58 368.5,382.5C 361.04,388.087 352.706,389.92 343.5,388C 328.634,380.743 323.967,369.243 329.5,353.5C 332.874,349.124 336.874,345.458 341.5,342.5C 332.352,322.028 322.352,301.528 311.5,281C 332.145,290.821 352.811,300.988 373.5,311.5C 382.59,295.615 395.257,292.115 411.5,301C 422.765,312.391 423.432,324.391 413.5,337C 414.044,337.717 414.711,338.217 415.5,338.5 Z"/></g>
<g><path style="opacity:1" fill="#FFFFFF" d="M 341.5,342.5 C 336.874,345.458 332.874,349.124 329.5,353.5C 314.178,340.509 296.511,332.342 276.5,329C 241.024,323.284 209.357,331.451 181.5,353.5C 178.126,349.124 174.126,345.458 169.5,342.5C 185.2,329.082 203.2,319.915 223.5,315C 267.272,305.946 306.606,315.113 341.5,342.5 Z"/></g>
</svg>
