<?xml version="1.0" encoding="UTF-8"?>
<!DOCTYPE svg PUBLIC "-//W3C//DTD SVG 1.1//EN" "http://www.w3.org/Graphics/SVG/1.1/DTD/svg11.dtd">
<svg xmlns="http://www.w3.org/2000/svg" version="1.1" width="512px" height="512px" style="shape-rendering:geometricPrecision; text-rendering:geometricPrecision; image-rendering:optimizeQuality; fill-rule:evenodd; clip-rule:evenodd" xmlns:xlink="http://www.w3.org/1999/xlink">
<g><path style="opacity:0.972" fill="#000000" d="M 243.5,41.5 C 322.667,40.1684 385.5,71.1684 432,134.5C 471.074,194.759 479.408,259.093 457,327.5C 435.106,383.814 396.939,424.981 342.5,451C 266.399,481.689 194.732,473.689 127.5,427C 62.4032,374.763 34.5699,306.929 44,223.5C 57.9817,147.875 99.4817,93.3745 168.5,60C 192.604,49.6847 217.604,43.518 243.5,41.5 Z M 240.5,85.5 C 313.206,82.9245 368.039,112.591 405,174.5C 432.333,228.5 432.333,282.5 405,336.5C 368.257,398.134 313.757,427.634 241.5,425C 181.434,417.909 136.267,388.409 106,336.5C 78.3866,281.67 78.7199,227.004 107,172.5C 137.555,122.294 182.055,93.2939 240.5,85.5 Z"/></g>
<g><path style="opacity:0.974" fill="#000000" d="M 187.5,169.5 C 193.189,169.089 198.522,170.256 203.5,173C 220.681,190.347 238.014,207.514 255.5,224.5C 272.986,207.514 290.319,190.347 307.5,173C 319.4,167.017 329.567,169.183 338,179.5C 342.667,187.5 342.667,195.5 338,203.5C 320.653,220.681 303.486,238.014 286.5,255.5C 303.486,272.986 320.653,290.319 338,307.5C 343.983,319.4 341.817,329.567 331.5,338C 323.5,342.667 315.5,342.667 307.5,338C 290.319,320.653 272.986,303.486 255.5,286.5C 238.014,303.486 220.681,320.653 203.5,338C 191.6,343.983 181.433,341.817 173,331.5C 168.333,323.5 168.333,315.5 173,307.5C 190.347,290.319 207.514,272.986 224.5,255.5C 207.514,238.014 190.347,220.681 173,203.5C 166.066,187.044 170.899,175.71 187.5,169.5 Z"/></g>
</svg>
