<?xml version="1.0" encoding="UTF-8"?>
<!DOCTYPE svg PUBLIC "-//W3C//DTD SVG 1.1//EN" "http://www.w3.org/Graphics/SVG/1.1/DTD/svg11.dtd">
<svg xmlns="http://www.w3.org/2000/svg" version="1.1" width="512px" height="512px" style="shape-rendering:geometricPrecision; text-rendering:geometricPrecision; image-rendering:optimizeQuality; fill-rule:evenodd; clip-rule:evenodd" xmlns:xlink="http://www.w3.org/1999/xlink">
<g><path style="opacity:1" fill="#FFFFFF" d="M 325.5,485.5 C 413.413,439.641 459.413,366.808 463.5,267C 459.988,174.938 418.988,105.271 340.5,58C 281.972,26.8506 220.638,19.684 156.5,36.5C 202.221,16.0294 249.887,10.196 299.5,19C 371.302,34.1281 426.135,72.9615 464,135.5C 495.919,192.941 503.919,253.608 488,317.5C 463.108,401.891 408.942,457.891 325.5,485.5 Z"/></g>
<g><path style="opacity:0.998" fill="#4DBC9C" d="M 325.5,485.5 C 246.716,507.481 174.382,494.314 108.5,446C 34.9842,384.821 5.1509,306.654 19,211.5C 36.3782,130.642 82.2115,72.3082 156.5,36.5C 220.638,19.684 281.972,26.8506 340.5,58C 418.988,105.271 459.988,174.938 463.5,267C 459.413,366.808 413.413,439.641 325.5,485.5 Z"/></g>
<g><path style="opacity:1" fill="#FFFFFF" d="M 139.5,149.5 C 142.941,149.301 146.274,149.801 149.5,151C 172.833,163 196.167,175 219.5,187C 228.767,194.733 229.934,203.566 223,213.5C 199.419,226.735 175.585,239.569 151.5,252C 140.836,256.08 133.336,252.914 129,242.5C 127.932,237.232 128.599,232.232 131,227.5C 145.751,218.541 160.584,209.707 175.5,201C 161.992,193.412 148.326,186.079 134.5,179C 125.775,170.573 125.442,161.907 133.5,153C 135.432,151.541 137.432,150.375 139.5,149.5 Z"/></g>
<g><path style="opacity:1" fill="#FFFFFF" d="M 361.5,150.5 C 378.84,149.674 385.34,157.674 381,174.5C 379.833,177 378,178.833 375.5,180C 361.674,187.079 348.008,194.412 334.5,202C 348.674,209.921 363.008,217.588 377.5,225C 385.929,234.592 385.262,243.592 375.5,252C 370.734,254.31 365.734,254.977 360.5,254C 336.992,241.079 313.326,228.412 289.5,216C 280.725,207.604 280.392,198.937 288.5,190C 313.214,177.313 337.548,164.147 361.5,150.5 Z"/></g>
<g><path style="opacity:1" fill="#FFFFFF" d="M 186.5,303.5 C 232.168,303.333 277.835,303.5 323.5,304C 335.887,309.281 338.721,317.781 332,329.5C 329.559,331.969 326.726,333.802 323.5,335C 277.833,335.667 232.167,335.667 186.5,335C 176.08,329.496 173.247,321.329 178,310.5C 180.441,307.546 183.275,305.213 186.5,303.5 Z"/></g>
</svg>
