<?xml version="1.0" encoding="UTF-8"?>
<!DOCTYPE svg PUBLIC "-//W3C//DTD SVG 1.1//EN" "http://www.w3.org/Graphics/SVG/1.1/DTD/svg11.dtd">
<svg xmlns="http://www.w3.org/2000/svg" version="1.1" width="512px" height="512px" style="shape-rendering:geometricPrecision; text-rendering:geometricPrecision; image-rendering:optimizeQuality; fill-rule:evenodd; clip-rule:evenodd" xmlns:xlink="http://www.w3.org/1999/xlink">
<g><path style="opacity:0.993" fill="#4DBC9C" d="M 131.5,449.5 C 135.144,443.664 138.644,437.664 142,431.5C 147.6,417.572 148.933,403.239 146,388.5C 134.109,348.674 116.109,312.007 92,278.5C 89.1312,275.296 85.9646,272.463 82.5,270C 79.2583,269.014 76.5917,269.848 74.5,272.5C 68.428,279.069 62.928,286.069 58,293.5C 51.1402,305.23 44.3068,316.896 37.5,328.5C 12.6873,245.781 27.5207,171.114 82,104.5C 141.326,40.8341 214.159,16.0008 300.5,30C 391.626,51.4598 450.792,106.96 478,196.5C 496.328,276.244 479.328,347.244 427,409.5C 359.905,478.32 279.739,500.154 186.5,475C 167.098,468.63 148.765,460.13 131.5,449.5 Z"/></g>
<g><path style="opacity:1" fill="#FFFFFF" d="M 318.5,107.5 C 323.702,106.756 328.369,107.923 332.5,111C 352.339,144.763 382.006,161.763 421.5,162C 430.886,166.828 433.052,173.994 428,183.5C 425.531,185.652 422.698,187.152 419.5,188C 375.78,188.391 341.28,170.891 316,135.5C 314.333,132.5 312.667,129.5 311,126.5C 307.967,117.909 310.467,111.575 318.5,107.5 Z"/></g>
<g><path style="opacity:1" fill="#FFFFFF" d="M 183.5,107.5 C 196.179,106.347 202.012,112.013 201,124.5C 191.591,150.909 173.758,169.076 147.5,179C 129.094,185.676 110.094,188.676 90.5,188C 82.7522,184.672 79.5855,178.839 81,170.5C 82.5,166.333 85.3333,163.5 89.5,162C 110.728,162.422 130.728,157.756 149.5,148C 162.693,139.797 171.86,128.297 177,113.5C 179.063,111.266 181.229,109.266 183.5,107.5 Z"/></g>
<g><path style="opacity:1" fill="#FFFFFF" d="M 160.5,188.5 C 174.558,186.679 185.392,191.679 193,203.5C 202.835,221.506 204.168,240.172 197,259.5C 187.066,281.749 171.566,287.249 150.5,276C 136.882,261.134 131.715,243.634 135,223.5C 138.052,207.649 146.552,195.982 160.5,188.5 Z"/></g>
<g><path style="opacity:1" fill="#FFFFFF" d="M 336.5,188.5 C 350.706,187.02 361.539,192.353 369,204.5C 378.257,223.489 378.923,242.822 371,262.5C 359.454,283.582 343.787,287.582 324,274.5C 309.179,255.384 305.846,234.384 314,211.5C 318.379,200.622 325.879,192.956 336.5,188.5 Z"/></g>
<g><path style="opacity:0.991" fill="#FFFFFF" d="M 131.5,449.5 C 106.92,473.371 78.9204,478.204 47.5,464C 21.8017,448.103 10.3017,424.936 13,394.5C 18.516,371.445 26.6827,349.445 37.5,328.5C 44.3068,316.896 51.1402,305.23 58,293.5C 62.928,286.069 68.428,279.069 74.5,272.5C 76.5917,269.848 79.2583,269.014 82.5,270C 85.9646,272.463 89.1312,275.296 92,278.5C 116.109,312.007 134.109,348.674 146,388.5C 148.933,403.239 147.6,417.572 142,431.5C 138.644,437.664 135.144,443.664 131.5,449.5 Z"/></g>
<g><path style="opacity:1" fill="#FFFFFF" d="M 245.5,329.5 C 287.354,328.007 315.188,347.007 329,386.5C 330.82,392.329 328.82,395.996 323,397.5C 316.06,393.181 308.56,390.015 300.5,388C 267.985,381.431 235.652,382.098 203.5,390C 199.221,391.473 195.221,393.473 191.5,396C 185.648,398.04 182.315,396.04 181.5,390C 190.795,356.867 212.128,336.7 245.5,329.5 Z"/></g>
</svg>
