<?xml version="1.0" encoding="UTF-8"?>
<!DOCTYPE svg PUBLIC "-//W3C//DTD SVG 1.1//EN" "http://www.w3.org/Graphics/SVG/1.1/DTD/svg11.dtd">
<svg xmlns="http://www.w3.org/2000/svg" version="1.1" width="512px" height="512px" style="shape-rendering:geometricPrecision; text-rendering:geometricPrecision; image-rendering:optimizeQuality; fill-rule:evenodd; clip-rule:evenodd" xmlns:xlink="http://www.w3.org/1999/xlink">
<g><path style="opacity:0.996" fill="#4DBC9C" d="M 232.5,-0.5 C 247.833,-0.5 263.167,-0.5 278.5,-0.5C 368.144,10.3879 435.644,54.7213 481,132.5C 497.695,163.971 507.861,197.304 511.5,232.5C 511.5,247.833 511.5,263.167 511.5,278.5C 500.612,368.144 456.279,435.644 378.5,481C 347.029,497.695 313.696,507.861 278.5,511.5C 263.167,511.5 247.833,511.5 232.5,511.5C 142.856,500.612 75.3562,456.279 30,378.5C 13.3053,347.029 3.1386,313.696 -0.5,278.5C -0.5,263.167 -0.5,247.833 -0.5,232.5C 10.3875,142.857 54.7208,75.3573 132.5,30C 163.971,13.3053 197.304,3.1386 232.5,-0.5 Z"/></g>
<g><path style="opacity:1" fill="#FFFFFF" d="M 149.5,101.5 C 153.803,100.796 157.303,102.13 160,105.5C 165.138,120.415 169.972,135.415 174.5,150.5C 190.837,150.333 207.17,150.5 223.5,151C 228.437,155.255 228.771,159.922 224.5,165C 212.667,173.5 200.833,182 189,190.5C 188.333,191.833 188.333,193.167 189,194.5C 193.535,207.771 197.868,221.105 202,234.5C 202.452,242.708 198.619,245.875 190.5,244C 178,234.833 165.5,225.667 153,216.5C 140.5,225.667 128,234.833 115.5,244C 107.381,245.875 103.548,242.708 104,234.5C 108.973,219.924 113.307,205.257 117,190.5C 104.833,181.667 92.6667,172.833 80.5,164C 77.3513,159.038 78.018,154.705 82.5,151C 98.8435,150.833 115.177,150.333 131.5,149.5C 136.231,134.808 141.064,120.141 146,105.5C 147.376,104.295 148.542,102.962 149.5,101.5 Z"/></g>
<g><path style="opacity:1" fill="#FFFFFF" d="M 355.5,101.5 C 359.426,101.047 362.592,102.38 365,105.5C 369.936,120.141 374.769,134.808 379.5,149.5C 395.823,150.333 412.156,150.833 428.5,151C 432.982,154.705 433.649,159.038 430.5,164C 418.333,172.833 406.167,181.667 394,190.5C 397.288,205.376 401.622,220.043 407,234.5C 407.502,242.653 403.669,245.82 395.5,244C 383,234.833 370.5,225.667 358,216.5C 345.5,225.667 333,234.833 320.5,244C 311.884,245.717 308.051,242.217 309,233.5C 313.702,219.729 318.202,205.895 322.5,192C 310.952,182.542 298.952,173.542 286.5,165C 282.229,159.922 282.563,155.255 287.5,151C 303.83,150.5 320.163,150.333 336.5,150.5C 341.024,135.426 345.858,120.426 351,105.5C 352.397,103.93 353.897,102.596 355.5,101.5 Z"/></g>
<g><path style="opacity:1" fill="#FFFFFF" d="M 134.5,320.5 C 137.187,320.336 139.854,320.503 142.5,321C 197.283,336.191 252.95,340.191 309.5,333C 330.603,330.113 351.436,325.946 372,320.5C 380.637,321.645 384.803,326.645 384.5,335.5C 382.899,351.362 377.399,365.695 368,378.5C 342.427,409.209 309.593,426.709 269.5,431C 224.514,434.784 185.681,421.284 153,390.5C 139.36,376.89 130.693,360.557 127,341.5C 124.493,332.547 126.993,325.547 134.5,320.5 Z"/></g>
</svg>
