<?xml version="1.0" encoding="UTF-8"?>
<!DOCTYPE svg PUBLIC "-//W3C//DTD SVG 1.1//EN" "http://www.w3.org/Graphics/SVG/1.1/DTD/svg11.dtd">
<svg xmlns="http://www.w3.org/2000/svg" version="1.1" width="512px" height="512px" style="shape-rendering:geometricPrecision; text-rendering:geometricPrecision; image-rendering:optimizeQuality; fill-rule:evenodd; clip-rule:evenodd" xmlns:xlink="http://www.w3.org/1999/xlink">
<g><path style="opacity:0.996" fill="#4DBC9C" d="M 248.5,47.5 C 329.77,46.8762 392.604,80.2096 437,147.5C 470.278,206.013 475.612,267.013 453,330.5C 424.27,398.889 373.77,441.722 301.5,459C 224.097,472.309 158.263,450.809 104,394.5C 51.1359,330.668 38.1359,259.335 65,180.5C 93.7262,112.115 144.226,69.2817 216.5,52C 227.257,50.0582 237.923,48.5582 248.5,47.5 Z"/></g>
<g><path style="opacity:1" fill="#FFFFFF" d="M 304.5,80.5 C 319.604,82.0259 333.937,86.1926 347.5,93C 351,95.1667 353.833,98 356,101.5C 357.291,109.788 353.791,112.955 345.5,111C 331.08,103.04 316.58,95.2062 302,87.5C 301.162,84.5193 301.995,82.1859 304.5,80.5 Z"/></g>
<g><path style="opacity:1" fill="#FFFFFF" d="M 157.5,117.5 C 166.791,115.702 170.624,119.368 169,128.5C 152.557,157.812 127.39,171.645 93.5,170C 90.7348,167.034 91.0682,164.367 94.5,162C 122.171,156.507 143.171,141.674 157.5,117.5 Z"/></g>
<g><path style="opacity:1" fill="#FFFFFF" d="M 391.5,150.5 C 398.291,154.893 405.625,158.227 413.5,160.5C 417.136,161.06 420.636,162.06 424,163.5C 425.313,167.205 424.146,169.538 420.5,170.5C 415.167,170.5 409.833,170.5 404.5,170.5C 378.649,165.002 359.483,150.669 347,127.5C 346.5,119.344 350.333,116.178 358.5,118C 364.167,125 369.833,132 375.5,139C 380.363,143.588 385.696,147.421 391.5,150.5 Z"/></g>
<g><path style="opacity:1" fill="#fdfcf7" d="M 413.5,160.5 C 405.625,158.227 398.291,154.893 391.5,150.5C 386.87,143.413 381.87,136.579 376.5,130C 377.225,125.916 379.558,124.582 383.5,126C 388.968,130.467 394.135,135.3 399,140.5C 404.464,146.784 409.297,153.45 413.5,160.5 Z"/></g>
<g><path style="opacity:1" fill="#fefefc" d="M 172.5,161.5 C 203.149,161.33 222.316,175.997 230,205.5C 231.387,238.101 216.221,257.934 184.5,265C 155.383,265.857 136.55,252.357 128,224.5C 124.682,190.417 139.515,169.417 172.5,161.5 Z"/></g>
<g><path style="opacity:1" fill="#fefefc" d="M 331.5,161.5 C 370.352,161.52 390.185,180.854 391,219.5C 382.923,252.959 361.756,267.792 327.5,264C 299.298,254.789 286.132,235.289 288,205.5C 293.347,181.653 307.847,166.986 331.5,161.5 Z"/></g>
<g><path style="opacity:1" fill="#fefefb" d="M 404.5,170.5 C 409.833,170.5 415.167,170.5 420.5,170.5C 436.929,197.885 444.096,227.552 442,259.5C 436.837,265.062 432.171,264.729 428,258.5C 426.717,227.364 418.884,198.031 404.5,170.5 Z"/></g>
<g><path style="opacity:1" fill="#734b05" d="M 171.5,184.5 C 196.187,183.354 208.02,195.021 207,219.5C 201.499,236.169 189.999,243.669 172.5,242C 155.821,236.474 148.321,224.974 150,207.5C 153.594,196.409 160.761,188.742 171.5,184.5 Z"/></g>
<g><path style="opacity:1" fill="#734b05" d="M 332.5,184.5 C 350.345,183 362.179,190.667 368,207.5C 369.679,224.974 362.179,236.474 345.5,242C 328.026,243.679 316.526,236.179 311,219.5C 309.033,202.083 316.2,190.416 332.5,184.5 Z"/></g>
<g><path style="opacity:1" fill="#734b03" d="M 245.5,312.5 C 283.601,308.972 313.101,322.972 334,354.5C 340.379,364.498 338.212,371.665 327.5,376C 280.417,376.99 233.417,376.656 186.5,375C 181.184,371.528 179.351,366.695 181,360.5C 195.014,334.304 216.514,318.304 245.5,312.5 Z"/></g>
</svg>
