<?xml version="1.0" encoding="UTF-8"?>
<!DOCTYPE svg PUBLIC "-//W3C//DTD SVG 1.1//EN" "http://www.w3.org/Graphics/SVG/1.1/DTD/svg11.dtd">
<svg xmlns="http://www.w3.org/2000/svg" version="1.1" width="512px" height="512px" style="shape-rendering:geometricPrecision; text-rendering:geometricPrecision; image-rendering:optimizeQuality; fill-rule:evenodd; clip-rule:evenodd" xmlns:xlink="http://www.w3.org/1999/xlink">
<g><path style="opacity:0.997" fill="#4DBC9C" d="M 232.5,-0.5 C 247.833,-0.5 263.167,-0.5 278.5,-0.5C 368.144,10.3879 435.644,54.7213 481,132.5C 497.695,163.971 507.861,197.304 511.5,232.5C 511.5,247.833 511.5,263.167 511.5,278.5C 500.612,368.144 456.279,435.644 378.5,481C 347.029,497.695 313.696,507.861 278.5,511.5C 263.167,511.5 247.833,511.5 232.5,511.5C 142.856,500.612 75.3562,456.279 30,378.5C 13.3053,347.029 3.1386,313.696 -0.5,278.5C -0.5,263.167 -0.5,247.833 -0.5,232.5C 10.3875,142.857 54.7208,75.3573 132.5,30C 163.971,13.3053 197.304,3.1386 232.5,-0.5 Z"/></g>
<g><path style="opacity:1" fill="#FFFFFF" d="M 163.5,159.5 C 190.203,158.375 203.703,171.042 204,197.5C 198.666,219.143 184.833,228.643 162.5,226C 143.162,218.831 134.995,204.997 138,184.5C 142.443,171.889 150.943,163.555 163.5,159.5 Z"/></g>
<g><path style="opacity:1" fill="#FFFFFF" d="M 332.5,159.5 C 352.54,157.393 366.04,165.727 373,184.5C 376.065,205.55 367.565,219.383 347.5,226C 319.901,227.402 306.401,214.235 307,186.5C 309.099,177.416 313.933,170.249 321.5,165C 325.259,163.121 328.925,161.287 332.5,159.5 Z"/></g>
<g><path style="opacity:1" fill="#FFFFFF" d="M 127.5,285.5 C 134.894,284.615 141.061,286.948 146,292.5C 166.577,347.874 206.411,375.041 265.5,374C 315.181,367.067 348.348,339.9 365,292.5C 376.093,282.436 386.093,283.436 395,295.5C 396.457,299.741 396.791,304.074 396,308.5C 373.134,367.35 330.301,400.85 267.5,409C 220.776,411.541 180.943,396.374 148,363.5C 133.187,347.556 122.187,329.223 115,308.5C 113.352,297.654 117.518,289.987 127.5,285.5 Z"/></g>
</svg>
