<?xml version="1.0" encoding="UTF-8"?>
<!DOCTYPE svg PUBLIC "-//W3C//DTD SVG 1.1//EN" "http://www.w3.org/Graphics/SVG/1.1/DTD/svg11.dtd">
<svg xmlns="http://www.w3.org/2000/svg" version="1.1" width="512px" height="512px" style="shape-rendering:geometricPrecision; text-rendering:geometricPrecision; image-rendering:optimizeQuality; fill-rule:evenodd; clip-rule:evenodd" xmlns:xlink="http://www.w3.org/1999/xlink">
<g><path style="opacity:0.995" fill="#4DBC9C" d="M 233.5,-0.5 C 248.167,-0.5 262.833,-0.5 277.5,-0.5C 377.805,11.9821 449.305,63.9821 492,155.5C 502.297,180.687 508.797,206.687 511.5,233.5C 511.5,248.167 511.5,262.833 511.5,277.5C 499.018,377.805 447.018,449.305 355.5,492C 330.313,502.297 304.313,508.797 277.5,511.5C 262.833,511.5 248.167,511.5 233.5,511.5C 133.195,499.018 61.6947,447.018 19,355.5C 8.70332,330.313 2.20332,304.313 -0.5,277.5C -0.5,262.833 -0.5,248.167 -0.5,233.5C 11.9821,133.195 63.9821,61.6947 155.5,19C 180.687,8.70332 206.687,2.20332 233.5,-0.5 Z"/></g>
<g><path style="opacity:1" fill="#FFFFFF" d="M 152.5,159.5 C 171.829,157.91 184.662,166.244 191,184.5C 192.167,211.333 179.333,224.167 152.5,223C 134.108,216.722 125.941,203.889 128,184.5C 132.017,171.984 140.184,163.65 152.5,159.5 Z"/></g>
<g><path style="opacity:1" fill="#FFFFFF" d="M 344.5,159.5 C 363.829,157.91 376.662,166.244 383,184.5C 384.167,211.333 371.333,224.167 344.5,223C 326.108,216.722 317.941,203.889 320,184.5C 324.017,171.984 332.184,163.65 344.5,159.5 Z"/></g>
<g><path style="opacity:1" fill="#FFFFFF" d="M 171.5,351.5 C 227.501,351.333 283.501,351.5 339.5,352C 351.524,357.405 354.357,365.905 348,377.5C 345.592,379.956 342.759,381.789 339.5,383C 283.5,383.667 227.5,383.667 171.5,383C 159.655,377.481 156.822,368.981 163,357.5C 165.671,355.098 168.505,353.098 171.5,351.5 Z"/></g>
</svg>
