<?xml version="1.0" encoding="UTF-8"?>
<!DOCTYPE svg PUBLIC "-//W3C//DTD SVG 1.1//EN" "http://www.w3.org/Graphics/SVG/1.1/DTD/svg11.dtd">
<svg xmlns="http://www.w3.org/2000/svg" version="1.1" width="800px" height="800px" style="shape-rendering:geometricPrecision; text-rendering:geometricPrecision; image-rendering:optimizeQuality; fill-rule:evenodd; clip-rule:evenodd" xmlns:xlink="http://www.w3.org/1999/xlink">
<g><path style="opacity:1" fill="#fdfdfd" d="M -0.5,-0.5 C 126.833,-0.5 254.167,-0.5 381.5,-0.5C 253.325,8.49403 150.825,64.1607 74,166.5C 28.5583,230.991 3.72497,302.657 -0.5,381.5C -0.5,254.167 -0.5,126.833 -0.5,-0.5 Z"/></g>
<g><path style="opacity:1" fill="#4DBC9C" d="M 381.5,-0.5 C 392.833,-0.5 404.167,-0.5 415.5,-0.5C 542.561,7.77128 644.727,62.1046 722,162.5C 768.108,226.063 793.941,297.063 799.5,375.5C 799.5,390.167 799.5,404.833 799.5,419.5C 790.04,544.945 735.706,645.778 636.5,722C 571.653,768.562 499.32,794.395 419.5,799.5C 404.833,799.5 390.167,799.5 375.5,799.5C 239.933,787.159 134.766,724.493 60,611.5C 23.1879,551.235 3.02127,485.902 -0.5,415.5C -0.5,404.167 -0.5,392.833 -0.5,381.5C 3.72497,302.657 28.5583,230.991 74,166.5C 150.825,64.1607 253.325,8.49403 381.5,-0.5 Z"/></g>
<g><path style="opacity:1" fill="#fdfdfd" d="M 415.5,-0.5 C 543.5,-0.5 671.5,-0.5 799.5,-0.5C 799.5,124.833 799.5,250.167 799.5,375.5C 793.941,297.063 768.108,226.063 722,162.5C 644.727,62.1046 542.561,7.77128 415.5,-0.5 Z"/></g>
<g><path style="opacity:1" fill="#fbfbfb" d="M 196.5,222.5 C 204.686,223.579 212.353,226.412 219.5,231C 254.31,249.906 289.31,268.573 324.5,287C 333.4,294.804 334.9,303.971 329,314.5C 288.566,337.302 247.733,359.469 206.5,381C 195.15,385.549 186.65,382.383 181,371.5C 177.874,363.56 179.374,356.727 185.5,351C 215.659,335.088 245.659,318.921 275.5,302.5C 246.5,287 217.5,271.5 188.5,256C 181.446,249.902 179.613,242.402 183,233.5C 186.213,228.107 190.713,224.441 196.5,222.5 Z"/></g>
<g><path style="opacity:1" fill="#fbfbfb" d="M 595.5,222.5 C 614.029,224.247 620.529,233.914 615,251.5C 613.5,253 612,254.5 610.5,256C 581.5,271.5 552.5,287 523.5,302.5C 553.341,318.921 583.341,335.088 613.5,351C 621.621,360.516 621.287,369.849 612.5,379C 608.809,381.347 604.809,382.847 600.5,383.5C 594.847,382.175 589.514,380.009 584.5,377C 547.167,357 509.833,337 472.5,317C 465.6,308.77 464.767,299.937 470,290.5C 511.528,267.155 553.361,244.488 595.5,222.5 Z"/></g>
<g><path style="opacity:1" fill="#fdfdfd" d="M 799.5,419.5 C 799.5,546.167 799.5,672.833 799.5,799.5C 672.833,799.5 546.167,799.5 419.5,799.5C 499.32,794.395 571.653,768.562 636.5,722C 735.706,645.778 790.04,544.945 799.5,419.5 Z"/></g>
<g><path style="opacity:1" fill="#fdfdfd" d="M -0.5,415.5 C 3.02127,485.902 23.1879,551.235 60,611.5C 134.766,724.493 239.933,787.159 375.5,799.5C 250.167,799.5 124.833,799.5 -0.5,799.5C -0.5,671.5 -0.5,543.5 -0.5,415.5 Z"/></g>
<g><path style="opacity:1" fill="#fdfdfd" d="M 173.5,443.5 C 324.167,443.333 474.834,443.5 625.5,444C 636.314,446.479 642.648,453.146 644.5,464C 633.588,547.887 591.922,611.22 519.5,654C 450.417,689.577 379.417,693.911 306.5,667C 218.43,627.741 167.764,560.241 154.5,464.5C 156.271,453.395 162.604,446.395 173.5,443.5 Z"/></g>
</svg>
