<?xml version="1.0" encoding="UTF-8"?>
<!DOCTYPE svg PUBLIC "-//W3C//DTD SVG 1.1//EN" "http://www.w3.org/Graphics/SVG/1.1/DTD/svg11.dtd">
<svg xmlns="http://www.w3.org/2000/svg" version="1.1" width="512px" height="512px" style="shape-rendering:geometricPrecision; text-rendering:geometricPrecision; image-rendering:optimizeQuality; fill-rule:evenodd; clip-rule:evenodd" xmlns:xlink="http://www.w3.org/1999/xlink">
<g><path style="opacity:0.997" fill="#000000" d="M 117.5,31.5 C 140.169,31.3334 162.836,31.5 185.5,32C 205.333,37.1667 217.833,49.6667 223,69.5C 223.667,193.5 223.667,317.5 223,441.5C 217.833,461.333 205.333,473.833 185.5,479C 162.833,479.667 140.167,479.667 117.5,479C 97.6667,473.833 85.1667,461.333 80,441.5C 79.3333,317.5 79.3333,193.5 80,69.5C 85.3488,49.6518 97.8488,36.9852 117.5,31.5 Z"/></g>
<g><path style="opacity:0.997" fill="#000000" d="M 325.5,31.5 C 348.169,31.3334 370.836,31.5 393.5,32C 413.333,37.1667 425.833,49.6667 431,69.5C 431.667,193.5 431.667,317.5 431,441.5C 425.833,461.333 413.333,473.833 393.5,479C 370.833,479.667 348.167,479.667 325.5,479C 305.667,473.833 293.167,461.333 288,441.5C 287.333,317.5 287.333,193.5 288,69.5C 293.349,49.6518 305.849,36.9852 325.5,31.5 Z"/></g>
</svg>
