<?xml version="1.0" encoding="UTF-8"?>
<!DOCTYPE svg PUBLIC "-//W3C//DTD SVG 1.1//EN" "http://www.w3.org/Graphics/SVG/1.1/DTD/svg11.dtd">
<svg xmlns="http://www.w3.org/2000/svg" version="1.1" width="224px" height="224px" style="shape-rendering:geometricPrecision; text-rendering:geometricPrecision; image-rendering:optimizeQuality; fill-rule:evenodd; clip-rule:evenodd" xmlns:xlink="http://www.w3.org/1999/xlink">
<g><path style="opacity:1" fill="#fcfcfc" d="M -0.5,-0.5 C 74.1667,-0.5 148.833,-0.5 223.5,-0.5C 223.5,74.1667 223.5,148.833 223.5,223.5C 148.833,223.5 74.1667,223.5 -0.5,223.5C -0.5,148.833 -0.5,74.1667 -0.5,-0.5 Z"/></g>
<g><path style="opacity:1" fill="#4DBC9C" d="M 217.5,82.5 C 217.41,85.1522 218.076,87.4855 219.5,89.5C 221.686,102.112 222.019,114.779 220.5,127.5C 219.343,130.273 218.676,133.273 218.5,136.5C 205.444,183.223 175.111,211.223 127.5,220.5C 116.492,221.677 105.492,221.677 94.5,220.5C 93.8333,220.5 93.1667,220.5 92.5,220.5C 90.4855,219.076 88.1522,218.41 85.5,218.5C 47.091,207.927 20.9243,183.927 7,146.5C -8.34989,85.0482 11.8168,39.5482 67.5,10C 117.178,-8.03731 160.012,2.12935 196,40.5C 206.068,52.9694 213.235,66.9694 217.5,82.5 Z"/></g>
<g><path style="opacity:1" fill="#f5f5f5" d="M 49.5,95.5 C 46.1667,95.5 42.8333,95.5 39.5,95.5C 39.5,93.8333 39.5,92.1667 39.5,90.5C 46.2851,76.0471 57.6184,70.8804 73.5,75C 83.9176,77.9196 89.9176,84.7529 91.5,95.5C 87.774,95.8226 84.1073,95.4892 80.5,94.5C 75.706,85.8354 68.3726,82.6688 58.5,85C 53.4734,86.8534 50.4734,90.3534 49.5,95.5 Z"/></g>
<g><path style="opacity:1" fill="#f4f4f4" d="M 183.5,91.5 C 183.5,92.8333 183.5,94.1667 183.5,95.5C 180.167,95.5 176.833,95.5 173.5,95.5C 172.527,90.3534 169.527,86.8534 164.5,85C 157.117,83.2181 150.617,84.7181 145,89.5C 143.441,91.2166 142.608,93.2166 142.5,95.5C 138.833,95.5 135.167,95.5 131.5,95.5C 133.031,85.2881 138.698,78.4547 148.5,75C 160.712,72.0679 171.212,74.9012 180,83.5C 181.993,85.8175 183.159,88.4842 183.5,91.5 Z"/></g>
<g><path style="opacity:1" fill="#686868" d="M 217.5,82.5 C 218.924,84.5145 219.59,86.8478 219.5,89.5C 218.076,87.4855 217.41,85.1522 217.5,82.5 Z"/></g>
<g><path style="opacity:1" fill="#4DBC9C" d="M 39.5,90.5 C 39.5,92.1667 39.5,93.8333 39.5,95.5C 42.8333,95.5 46.1667,95.5 49.5,95.5C 46.0381,96.4816 42.3714,96.815 38.5,96.5C 38.2053,94.2646 38.5386,92.2646 39.5,90.5 Z"/></g>
<g><path style="opacity:1" fill="#4DBC9C" d="M 183.5,91.5 C 184.451,92.9187 184.784,94.5853 184.5,96.5C 180.629,96.815 176.962,96.4816 173.5,95.5C 176.833,95.5 180.167,95.5 183.5,95.5C 183.5,94.1667 183.5,92.8333 183.5,91.5 Z"/></g>
<g><path style="opacity:1" fill="#f8f8f8" d="M 48.5,126.5 C 51.0562,127.543 53.2228,129.21 55,131.5C 55.116,133.655 54.7827,135.655 54,137.5C 80.0806,164.974 110.581,171.141 145.5,156C 154.8,151.37 162.967,145.204 170,137.5C 169.973,135.583 169.139,133.916 167.5,132.5C 169.167,130.167 171.167,128.167 173.5,126.5C 181.327,132.494 188.327,139.327 194.5,147C 192.615,149.27 190.615,151.436 188.5,153.5C 186.851,152.352 185.351,151.019 184,149.5C 149.374,184.157 109.874,190.991 65.5,170C 56.1151,164.119 47.4484,157.286 39.5,149.5C 37.8307,150.671 36.3307,152.004 35,153.5C 34.228,153.355 33.5613,153.022 33,152.5C 31.0806,150.309 29.7473,147.976 29,145.5C 36.0041,139.662 42.5041,133.329 48.5,126.5 Z"/></g>
<g><path style="opacity:1" fill="#4DBC9C" d="M 220.5,127.5 C 220.785,130.829 220.118,133.829 218.5,136.5C 218.676,133.273 219.343,130.273 220.5,127.5 Z"/></g>
<g><path style="opacity:1" fill="#4DBC9C" d="M 85.5,218.5 C 88.1522,218.41 90.4855,219.076 92.5,220.5C 89.8478,220.59 87.5145,219.924 85.5,218.5 Z"/></g>
<g><path style="opacity:1" fill="#4DBC9C" d="M 94.5,220.5 C 105.492,221.677 116.492,221.677 127.5,220.5C 121.9,221.943 116.067,222.61 110,222.5C 104.579,222.674 99.4127,222.007 94.5,220.5 Z"/></g>
</svg>
