<?xml version="1.0" encoding="UTF-8"?>
<!DOCTYPE svg PUBLIC "-//W3C//DTD SVG 1.1//EN" "http://www.w3.org/Graphics/SVG/1.1/DTD/svg11.dtd">
<svg xmlns="http://www.w3.org/2000/svg" version="1.1" width="512px" height="512px" style="shape-rendering:geometricPrecision; text-rendering:geometricPrecision; image-rendering:optimizeQuality; fill-rule:evenodd; clip-rule:evenodd" xmlns:xlink="http://www.w3.org/1999/xlink">
<g><path style="opacity:0.994" fill="#000000" d="M 86.5,-0.5 C 92.5,-0.5 98.5,-0.5 104.5,-0.5C 119.492,3.15727 133.492,9.32394 146.5,18C 239.998,77.5832 333.664,136.917 427.5,196C 438.625,203.458 448.125,212.624 456,223.5C 471.406,252.965 467.239,279.298 443.5,302.5C 437.977,307.19 432.311,311.69 426.5,316C 332.664,375.083 238.998,434.417 145.5,494C 133.156,502.344 119.823,508.178 105.5,511.5C 98.5,511.5 91.5,511.5 84.5,511.5C 67.4065,506.578 55.9065,495.578 50,478.5C 47.911,470.966 46.5777,463.3 46,455.5C 45.3333,322.5 45.3333,189.5 46,56.5C 46.0797,37.9041 52.5797,22.0707 65.5,9C 72.0155,4.55929 79.0155,1.39263 86.5,-0.5 Z"/></g>
</svg>
