<?xml version="1.0" encoding="UTF-8"?>
<!DOCTYPE svg PUBLIC "-//W3C//DTD SVG 1.1//EN" "http://www.w3.org/Graphics/SVG/1.1/DTD/svg11.dtd">
<svg xmlns="http://www.w3.org/2000/svg" version="1.1" width="512px" height="512px" style="shape-rendering:geometricPrecision; text-rendering:geometricPrecision; image-rendering:optimizeQuality; fill-rule:evenodd; clip-rule:evenodd" xmlns:xlink="http://www.w3.org/1999/xlink">
<g><path style="opacity:0.997" fill="#4DBC9C" d="M 233.5,-0.5 C 248.167,-0.5 262.833,-0.5 277.5,-0.5C 317.909,3.4696 355.576,15.9696 390.5,37C 399.772,42.7908 408.438,49.2908 416.5,56.5C 473.75,132.411 487.25,215.745 457,306.5C 419.673,397.092 352.84,451.592 256.5,470C 182.021,480.157 115.355,462.323 56.5,416.5C 33.5626,389.301 17.396,358.301 8,323.5C 4.1719,308.204 1.33856,292.87 -0.5,277.5C -0.5,262.833 -0.5,248.167 -0.5,233.5C 11.9821,133.195 63.9821,61.6947 155.5,19C 180.687,8.70332 206.687,2.20332 233.5,-0.5 Z"/></g>
<g><path style="opacity:1" fill="#4DBC9C" d="M 416.5,56.5 C 472.506,102.164 504.173,161.164 511.5,233.5C 511.5,248.167 511.5,262.833 511.5,277.5C 499.018,377.805 447.018,449.305 355.5,492C 330.313,502.297 304.313,508.797 277.5,511.5C 262.833,511.5 248.167,511.5 233.5,511.5C 161.164,504.173 102.164,472.506 56.5,416.5C 115.355,462.323 182.021,480.157 256.5,470C 352.84,451.592 419.673,397.092 457,306.5C 487.25,215.745 473.75,132.411 416.5,56.5 Z"/></g>
<g><path style="opacity:1" fill="#4DBC9C" d="M 143.5,129.5 C 157.644,127.829 170.978,130.329 183.5,137C 189.602,141.105 191.102,146.605 188,153.5C 186.786,155.049 185.286,156.215 183.5,157C 152.431,152.128 126.931,161.628 107,185.5C 103.73,191.04 100.73,196.707 98,202.5C 91.9947,173.678 101.495,151.512 126.5,136C 132.054,133.21 137.721,131.043 143.5,129.5 Z"/></g>
<g><path style="opacity:1" fill="#4DBC9C" d="M 346.5,129.5 C 376.319,126.859 397.819,138.859 411,165.5C 415.986,177.629 416.653,189.962 413,202.5C 400.614,173.621 378.614,158.288 347,156.5C 340.172,157.282 333.339,157.449 326.5,157C 321.355,152.402 320.188,146.902 323,140.5C 330.154,135.181 337.987,131.514 346.5,129.5 Z"/></g>
<g><path style="opacity:1" fill="#fefefd" d="M 160.5,191.5 C 190.474,189.727 211.641,202.394 224,229.5C 231.9,257.465 224.4,280.299 201.5,298C 167.175,315.552 139.342,308.385 118,276.5C 104.274,241.339 113.774,214.506 146.5,196C 151.311,194.552 155.977,193.052 160.5,191.5 Z"/></g>
<g><path style="opacity:1" fill="#fefefd" d="M 332.5,191.5 C 362.51,189.742 383.676,202.409 396,229.5C 404.337,260.165 395.171,283.998 368.5,301C 335.51,314.335 309.343,306.168 290,276.5C 277.491,246.365 283.991,221.198 309.5,201C 316.793,196.679 324.46,193.512 332.5,191.5 Z"/></g>
<g><path style="opacity:1" fill="#404549" d="M 161.5,223.5 C 178.392,221.025 189.892,227.692 196,243.5C 197.939,259.777 191.105,270.61 175.5,276C 159.125,277.898 148.291,271.065 143,255.5C 141.418,240.27 147.585,229.603 161.5,223.5 Z"/></g>
<g><path style="opacity:1" fill="#404549" d="M 335.5,222.5 C 357.691,222.523 368.524,233.523 368,255.5C 359.77,275.132 345.937,280.632 326.5,272C 310.919,257.691 310.586,243.025 325.5,228C 328.767,225.871 332.101,224.038 335.5,222.5 Z"/></g>
<g><path style="opacity:1" fill="#595e62" d="M 157.5,235.5 C 164.565,234.961 166.398,237.961 163,244.5C 160.294,247.978 157.294,248.311 154,245.5C 152.756,241.191 153.923,237.858 157.5,235.5 Z"/></g>
<g><path style="opacity:1" fill="#595e62" d="M 347.5,235.5 C 356.553,235.132 359.22,238.965 355.5,247C 347.84,246.882 345.173,243.049 347.5,235.5 Z"/></g>
<g><path style="opacity:1" fill="#3f4346" d="M 250.5,353.5 C 276.747,353.591 293.247,366.258 300,391.5C 301.51,417.336 290.01,434.17 265.5,442C 237.914,445.465 220.081,433.965 212,407.5C 208.664,384.673 217.164,367.839 237.5,357C 241.919,355.648 246.252,354.481 250.5,353.5 Z"/></g>
</svg>
