<?xml version="1.0" encoding="UTF-8"?>
<!DOCTYPE svg PUBLIC "-//W3C//DTD SVG 1.1//EN" "http://www.w3.org/Graphics/SVG/1.1/DTD/svg11.dtd">
<svg xmlns="http://www.w3.org/2000/svg" version="1.1" width="512px" height="512px" style="shape-rendering:geometricPrecision; text-rendering:geometricPrecision; image-rendering:optimizeQuality; fill-rule:evenodd; clip-rule:evenodd" xmlns:xlink="http://www.w3.org/1999/xlink">
<g><path style="opacity:0.984" fill="#B1B1B1" d="M 287.5,-0.5 C 298.5,-0.5 309.5,-0.5 320.5,-0.5C 376.696,9.02445 413.363,41.0245 430.5,95.5C 475.512,104.18 502.512,130.847 511.5,175.5C 511.5,185.167 511.5,194.833 511.5,204.5C 504.798,244.377 482.131,270.543 443.5,283C 438.239,284.385 432.906,285.385 427.5,286C 406.836,286.5 386.169,286.667 365.5,286.5C 365.5,269.833 365.5,253.167 365.5,236.5C 390.437,239.361 406.937,229.028 415,205.5C 417.462,192.345 414.462,180.678 406,170.5C 380.5,145 355,119.5 329.5,94C 316.134,84.7 301.801,83.0333 286.5,89C 282.89,90.944 279.557,93.2774 276.5,96C 252,120.5 227.5,145 203,169.5C 190.224,185.802 189.224,202.802 200,220.5C 211.202,233.405 225.369,238.738 242.5,236.5C 242.5,253.167 242.5,269.833 242.5,286.5C 224.167,286.5 205.833,286.5 187.5,286.5C 191.319,241.943 172.319,212.109 130.5,197C 118.93,194.329 107.264,193.829 95.5,195.5C 95.4404,151.755 115.107,120.588 154.5,102C 161.978,99.1179 169.645,96.9512 177.5,95.5C 194.642,41.0192 231.308,9.01915 287.5,-0.5 Z"/></g>
<g><path style="opacity:0.98" fill="#B1B1B1" d="M 299.5,114.5 C 303.308,114.163 306.974,114.663 310.5,116C 336.028,141.195 361.195,166.695 386,192.5C 388.22,199.437 386.053,204.27 379.5,207C 365.171,207.5 350.837,207.667 336.5,207.5C 336.667,248.168 336.5,288.835 336,329.5C 334.301,333.205 331.467,335.372 327.5,336C 311.833,336.667 296.167,336.667 280.5,336C 276.501,335.332 273.668,333.165 272,329.5C 271.5,288.835 271.333,248.168 271.5,207.5C 257.163,207.667 242.829,207.5 228.5,207C 221.947,204.27 219.78,199.437 222,192.5C 247.367,165.966 273.2,139.966 299.5,114.5 Z"/></g>
<g><path style="opacity:0.983" fill="#B1B1B1" d="M 108.5,223.5 C 135.624,223.799 152.124,237.132 158,263.5C 158.667,290.167 158.667,316.833 158,343.5C 152.334,368.51 136.667,381.843 111,383.5C 93.4339,382.556 79.7672,374.889 70,360.5C 67.0059,355.184 65.0059,349.518 64,343.5C 63.3333,317.167 63.3333,290.833 64,264.5C 68.8387,239.823 83.6721,226.156 108.5,223.5 Z"/></g>
<g><path style="opacity:0.963" fill="#B1B1B1" d="M 148.5,511.5 C 123.5,511.5 98.5,511.5 73.5,511.5C 63.7107,505.959 61.2107,497.959 66,487.5C 67.8734,485.291 70.04,483.458 72.5,482C 80.1128,480.738 87.7795,480.238 95.5,480.5C 95.5,469.167 95.5,457.833 95.5,446.5C 41.756,436.089 9.75597,404.089 -0.5,350.5C -0.5,343.5 -0.5,336.5 -0.5,329.5C 4.97351,320.731 12.6402,318.231 22.5,322C 25.3845,323.884 27.5512,326.384 29,329.5C 31.3672,382.197 58.7005,411.197 111,416.5C 145.469,415.284 170.136,399.284 185,368.5C 186.974,363.272 188.641,357.938 190,352.5C 190.796,344.067 192.129,335.734 194,327.5C 201.141,319.6 209.308,318.434 218.5,324C 221.585,327.565 223.252,331.732 223.5,336.5C 220.324,386.726 195.657,421.559 149.5,441C 142.01,443.623 134.344,445.456 126.5,446.5C 126.5,457.833 126.5,469.167 126.5,480.5C 134.228,480.189 141.895,480.689 149.5,482C 158.772,487.778 160.938,495.611 156,505.5C 153.866,508.153 151.366,510.153 148.5,511.5 Z"/></g>
</svg>
